<?xml version="1.0" encoding="utf-8"?><!-- Uploaded to: SVG Repo, www.svgrepo.com, Generator: SVG Repo Mixer Tools -->
<svg width="800px" height="800px" viewBox="0 0 100 100" xmlns="http://www.w3.org/2000/svg" xmlns:xlink="http://www.w3.org/1999/xlink" aria-hidden="true" role="img" class="iconify iconify--gis" preserveAspectRatio="xMidYMid meet"><path d="M49.368 11.228c-11.646-.171-27.826.079-31.156 9.027l-8.184 19.204a2.85 2.85 0 0 0-1.37-.865l-3.296-.927a2.86 2.86 0 0 0-3.534 1.983l-1.72 6.104a2.86 2.86 0 0 0 1.983 3.535l3.297.927c.11.03.22.04.33.059c-.63 1.569-1.023 3.295-1.023 4.322v22.32c0 1.145.48 1.674 1.243 1.922v5.947a4.008 4.008 0 0 0 4.017 4.017H20.73a4.008 4.008 0 0 0 4.017-4.017v-5.729h50.504v5.729a4.01 4.01 0 0 0 4.018 4.017h10.775a4.01 4.01 0 0 0 4.019-4.017v-5.947c.763-.248 1.24-.777 1.24-1.922v-22.32c0-1.027-.393-2.753-1.022-4.322c.11-.018.22-.028.33-.06l3.297-.926a2.86 2.86 0 0 0 1.982-3.535l-1.717-6.104a2.861 2.861 0 0 0-3.536-1.983l-3.295.927a2.855 2.855 0 0 0-1.37.865l-8.185-19.204c-3.57-9.084-20.773-8.856-32.42-9.027zm33.358 29.444c.194.576-.386.96-.993.995c0 0-1.984.168-4.72.389c-2.082-4.864-6.92-8.292-12.525-8.292c-6.151 0-11.373 4.13-13.048 9.754c-.464.006-1.003.026-1.435.026c-10.596 0-31.738-1.877-31.738-1.877c-.607-.036-1.187-.419-.993-.995c8.142-24.821 8.385-22.955 32.275-22.694c23.891.26 24.03-1.513 33.177 22.694zm-18.238-2.217a8.886 8.886 0 0 1 7.447 3.991c-4.785.356-10.292.719-15.424.93a8.879 8.879 0 0 1 7.977-4.921zM9.407 46.511c.072.106.142.213.221.317h-.31zm5.294 6.234c2.096-.035 13.348 3.753 13.348 3.753c1.405.395 2.642 3.051 2.635 4.511c-.021 4.917-12.71 3.21-17.86 3.23a2.63 2.63 0 0 1-2.635-2.634V55.38c0-1.46 2.416-2.6 4.512-2.635zm70.598 0c2.096.034 4.512 1.175 4.512 2.635v6.225a2.63 2.63 0 0 1-2.635 2.635c-5.15-.02-17.839 1.686-17.86-3.23c-.007-1.46 1.23-4.117 2.635-4.512c0 0 11.252-3.788 13.348-3.753z" fill="#000000"></path></svg>